<svg xmlns="http://www.w3.org/2000/svg" viewBox="0 0 64 64" role="img" aria-label="LazyForge icon">
  <rect width="64" height="64" rx="12" fill="#0F1117" />
  <path
    fill="#F3BE38"
    d="M14 26h36a3 3 0 0 1 3 3v8a3 3 0 0 1-3 3H38v6h6a3 3 0 0 1 2.4 1.2l5.9 7.7A2.5 2.5 0 0 1 50.3 59H13.7a2.5 2.5 0 0 1-2-4.1l5.9-7.7A3 3 0 0 1 20 46h6v-6H14a3 3 0 0 1-1.8-.6l-4.8-3.5a2.2 2.2 0 0 1 .2-3.7l4.8-2.3a3 3 0 0 1 1.6-.4Z"
  />
  <path d="M26 32.5c2.1 1.4 4.7 1.4 6.8 0" fill="none" stroke="#111111" stroke-width="1.8" stroke-linecap="round" />
  <path d="M35.2 32.5c2.1 1.4 4.7 1.4 6.8 0" fill="none" stroke="#111111" stroke-width="1.8" stroke-linecap="round" />
  <text x="49" y="20" fill="#45D5FF" font-size="8" font-weight="700" font-family="Inter, Segoe UI, Arial, sans-serif">Z</text>
</svg>
